<svg id="Layer_35" enable-background="new 0 0 64 64" height="512" viewBox="0 0 64 64" width="512" xmlns="http://www.w3.org/2000/svg"><path d="m57.8 22h-2.8v-2-16-2h2.8 4.2v20z" fill="#4fc1e9"/><path d="m52 2h3v20h-3z" fill="#e6e9ed"/><g fill="#f0d0b4"><path d="m40.43 7.15c-.43-.24-.83-.55-1.19-.91l-.24-.24h-3.99-3.01c-.44 0-.86-.1-1.24-.27-.33-.15-.63-.36-.88-.61-.54-.54-.88-1.29-.88-2.12 0-.55.45-1 1-1h14.51c1.6 0 3.12.63 4.25 1.76l.24.24h3v16h-3l-.24.24c-1.09 1.09-2.55 1.72-4.09 1.76h-.01l-4.24-14.84z"/><path d="m36.28 7.14 4.37 14.86h-10.65c1.1 0 2-.9 2-2 0-.55-.22-1.05-.59-1.41-.36-.37-.86-.59-1.41-.59 1.1 0 2-.9 2-2 0-.55-.22-1.05-.59-1.41-.36-.37-.86-.59-1.41-.59 1.1 0 2-.9 2-2 0-.55-.22-1.05-.59-1.41-.36-.37-.86-.59-1.41-.59 1.1 0 2-.9 2-2 0-.55-.22-1.05-.59-1.41-.23-.23-.5-.4-.82-.5l.17-.36c.38.17.8.27 1.24.27h3.01c.6 0 1.1.58 1.27 1.14z"/><path d="m31.41 10.59c.37.36.59.86.59 1.41 0 1.1-.9 2-2 2h-4c-.55 0-1.05-.22-1.41-.59-.37-.36-.59-.86-.59-1.41 0-1.1.9-2 2-2h4c.55 0 1.05.22 1.41.59z"/><path d="m31.41 18.59c.37.36.59.86.59 1.41 0 1.1-.9 2-2 2h-.65-.35-3c-.22 0-.43-.04-.63-.11-.3-.09-.56-.26-.78-.48-.37-.36-.59-.86-.59-1.41 0-1.1.9-2 2-2h4c.55 0 1.05.22 1.41.59z"/><path d="m31.41 14.59c.37.36.59.86.59 1.41 0 1.1-.9 2-2 2h-4c-.55 0-1.05-.22-1.41-.59-.37-.36-.59-.86-.59-1.41 0-1.1.9-2 2-2h4c.55 0 1.05.22 1.41.59z"/><path d="m31.41 6.59c.37.36.59.86.59 1.41 0 1.1-.9 2-2 2h-4c-.55 0-1.05-.22-1.41-.59-.37-.36-.59-.86-.59-1.41 0-1.1.9-2 2-2h4c.21 0 .41.03.59.09.32.1.59.27.82.5z"/></g><path d="m29 24.19 4 8-1 2-5.56-6.36c-.93-1.06-1.44-2.42-1.44-3.83 0-.54.08-1.08.22-1.6l.15-.51c.2.07.41.11.63.11h3 .35l-.35 1.19z" fill="#ccd1d9"/><path d="m44.78 22.4c.14.52.22 1.06.22 1.6 0 1.41-.51 2.77-1.44 3.83l-5.56 6.36-1-2 4-8v-1l-.35-1.19-4.37-14.86c-.17-.56-.67-1.14-1.27-1.14h3.99l.24.24c.36.36.76.67 1.19.91l-.01.01 4.24 14.84h.01z" fill="#ccd1d9"/><path d="m60 58c1.1 0 2 .9 2 2s-.9 2-2 2-2-.9-2-2c0-.36.09-.7.27-.99.34-.6.99-1.01 1.73-1.01z" fill="#ffc729"/><path d="m52.83 42.62c-.5-.36-.83-.96-.83-1.62 0-1.1.9-2 2-2s2 .9 2 2-.9 2-2 2c-.44 0-.84-.14-1.17-.38z" fill="#ffc729"/><path d="m50 52c0 .72-.19 1.39-.53 1.98-.68 1.21-1.98 2.02-3.47 2.02-1.44 0-2.71-.76-3.4-1.91-.38-.61-.6-1.33-.6-2.09 0-2.21 1.79-4 4-4 .88 0 1.69.28 2.35.77 1 .72 1.65 1.9 1.65 3.23z" fill="#fcd770"/><path d="m35 37c1.1 0 2 .9 2 2s-.9 2-2 2c-.5 0-.95-.18-1.3-.49-.43-.36-.7-.91-.7-1.51 0-1.1.9-2 2-2z" fill="#ffc729"/><path d="m34.7 58.95c.19.31.3.67.3 1.05 0 1.1-.9 2-2 2s-2-.9-2-2c0-.71.37-1.33.93-1.69.31-.2.68-.31 1.07-.31.72 0 1.35.38 1.7.95z" fill="#ffc729"/><path d="m28.84 46.19c.72.73 1.16 1.72 1.16 2.81 0 1.42-.74 2.66-1.85 3.37-.62.4-1.36.63-2.15.63-.87 0-1.68-.28-2.34-.76-.92-.66-1.54-1.69-1.64-2.88-.01-.12-.02-.24-.02-.36 0-.94.33-1.81.88-2.5.73-.92 1.86-1.5 3.12-1.5 1.11 0 2.12.46 2.84 1.19z" fill="#fcd770"/><path d="m23 30c1.1 0 2 .9 2 2s-.9 2-2 2c-.83 0-1.54-.51-1.85-1.23-.1-.24-.15-.5-.15-.77 0-1.1.9-2 2-2z" fill="#ffc729"/><path d="m18.3 58.49c.43.36.7.91.7 1.51 0 1.1-.9 2-2 2s-2-.9-2-2 .9-2 2-2c.5 0 .95.18 1.3.49z" fill="#ffc729"/><path d="m16.99 49.82c.01.06.01.12.01.18 0 1.1-.9 2-2 2s-2-.9-2-2 .9-2 2-2c1.04 0 1.9.8 1.99 1.82z" fill="#ffc729"/><path d="m14.69 35.46c.2.47.31.99.31 1.54 0 .94-.33 1.81-.88 2.5-.73.92-1.86 1.5-3.12 1.5-.73 0-1.42-.2-2.01-.55-1.19-.69-1.99-1.97-1.99-3.45 0-1.87 1.29-3.45 3.03-3.88.31-.08.64-.12.97-.12 1.66 0 3.09 1.01 3.69 2.46z" fill="#fcd770"/><path d="m8 23c1.1 0 2 .9 2 2 0 .93-.65 1.72-1.52 1.94-.15.04-.31.06-.48.06-1.1 0-2-.9-2-2s.9-2 2-2z" fill="#ffc729"/><path d="m5.01 47.27c.59.35.99 1 .99 1.73 0 1.1-.9 2-2 2s-2-.9-2-2 .9-2 2-2c.37 0 .71.1 1.01.27z" fill="#ffc729"/><path d="m60 57c-.746 0-1.421.284-1.946.736l-7.325-4.185c.162-.491.271-1.006.271-1.551 0-1.297-.509-2.469-1.321-3.358l3.475-4.778c.27.08.55.136.846.136 1.654 0 3-1.346 3-3s-1.346-3-3-3-3 1.346-3 3c0 .63.197 1.214.53 1.697l-3.464 4.763c-.631-.289-1.327-.46-2.066-.46-2.757 0-5 2.243-5 5 0 .602.124 1.172.32 1.706l-6.448 3.968c-.515-.415-1.161-.674-1.872-.674-.232 0-.455.032-.671.082l-2.86-4.495c.94-.909 1.531-2.178 1.531-3.587 0-1.035-.316-1.997-.857-2.796l3.781-4.412c.335.13.696.208 1.076.208 1.654 0 3-1.346 3-3s-1.346-3-3-3-3 1.346-3 3c0 .543.156 1.046.409 1.486l-3.704 4.322c-.781-.507-1.707-.808-2.705-.808-1.214 0-2.313.452-3.181 1.175l-7.387-5.91c.351-.683.568-1.446.568-2.265 0-.329-.036-.649-.097-.96l4.883-2.034c.549.606 1.334.994 2.214.994 1.654 0 3-1.346 3-3s-1.346-3-3-3-3 1.346-3 3c0 .055.013.106.016.16l-4.882 2.033c-.9-1.322-2.417-2.193-4.134-2.193-.073 0-.142.018-.214.022l-1.13-4.523c.808-.538 1.344-1.456 1.344-2.499 0-1.654-1.346-3-3-3s-3 1.346-3 3c0 1.556 1.195 2.824 2.713 2.971l1.134 4.536c-1.678.808-2.847 2.51-2.847 4.493 0 1.477.656 2.793 1.678 3.709l-3.119 5.348c-.181-.035-.368-.057-.559-.057-1.654 0-3 1.346-3 3s1.346 3 3 3 3-1.346 3-3c0-.736-.277-1.403-.719-1.925l3.126-5.359c.504.171 1.033.284 1.593.284 1.214 0 2.313-.452 3.18-1.174l7.387 5.91c-.269.525-.443 1.099-.511 1.71l-3.338.303c-.476-1.029-1.512-1.749-2.718-1.749-1.654 0-3 1.346-3 3s1.346 3 3 3c1.397 0 2.564-.964 2.896-2.259l3.34-.303c.212.701.567 1.334 1.042 1.868l-4.202 4.902c-.335-.13-.696-.208-1.076-.208-1.654 0-3 1.346-3 3s1.346 3 3 3 3-1.346 3-3c0-.543-.156-1.046-.409-1.485l4.289-5.004c.646.305 1.359.489 2.12.489.628 0 1.224-.129 1.779-.342l2.867 4.505c-.399.509-.646 1.142-.646 1.837 0 1.654 1.346 3 3 3s3-1.346 3-3c0-.216-.025-.426-.069-.63l6.434-3.959c.913.973 2.2 1.589 3.635 1.589 1.493 0 2.82-.671 3.737-1.713l7.317 4.181c-.031.173-.054.35-.054.532 0 1.654 1.346 3 3 3s3-1.346 3-3-1.346-3-3-3zm-37-26c.552 0 1 .448 1 1s-.448 1-1 1-1-.448-1-1 .448-1 1-1zm-16-6c0-.552.448-1 1-1s1 .448 1 1-.448 1-1 1-1-.448-1-1zm-3 25c-.552 0-1-.448-1-1s.448-1 1-1 1 .448 1 1-.448 1-1 1zm31-12c.552 0 1 .448 1 1s-.448 1-1 1-1-.448-1-1 .448-1 1-1zm-24 2c-1.654 0-3-1.346-3-3s1.346-3 3-3 3 1.346 3 3-1.346 3-3 3zm4 11c-.552 0-1-.448-1-1s.448-1 1-1 1 .448 1 1-.448 1-1 1zm2 10c-.552 0-1-.448-1-1s.448-1 1-1 1 .448 1 1-.448 1-1 1zm6-12c0-1.654 1.346-3 3-3s3 1.346 3 3-1.346 3-3 3-3-1.346-3-3zm10 12c-.552 0-1-.448-1-1s.448-1 1-1 1 .448 1 1-.448 1-1 1zm21-21c.552 0 1 .448 1 1s-.448 1-1 1-1-.448-1-1 .448-1 1-1zm-8 15c-1.654 0-3-1.346-3-3s1.346-3 3-3 3 1.346 3 3-1.346 3-3 3zm14 6c-.552 0-1-.448-1-1s.448-1 1-1 1 .448 1 1-.448 1-1 1z"/><path d="m51 1v2h-1.586c-1.316-1.29-3.054-2-4.899-2h-14.515c-1.103 0-2 .897-2 2 0 .732.212 1.409.556 2h-2.556c-1.654 0-3 1.346-3 3 0 .771.301 1.468.78 2-.48.532-.78 1.229-.78 2s.301 1.468.78 2c-.48.532-.78 1.229-.78 2s.301 1.468.78 2c-.48.532-.78 1.229-.78 2 0 .979.478 1.842 1.206 2.39-.128.527-.206 1.066-.206 1.61 0 1.651.599 3.245 1.687 4.488l6.542 7.477 1.89-3.779-4.119-8.237v-.62l.097-.329h9.807l.096.329v.62l-4.118 8.236 1.89 3.779 6.542-7.477c1.087-1.242 1.686-2.836 1.686-4.487 0-.383-.043-.763-.107-1.14 1.322-.264 2.542-.901 3.521-1.86h1.586v2h12v-22zm-22 20h-3c-.552 0-1-.448-1-1s.448-1 1-1h4c.552 0 1 .448 1 1s-.448 1-1 1zm-4-5c0-.552.448-1 1-1h4c.552 0 1 .448 1 1s-.448 1-1 1h-4c-.552 0-1-.448-1-1zm0-4c0-.552.448-1 1-1h4c.552 0 1 .448 1 1s-.448 1-1 1h-4c-.552 0-1-.448-1-1zm1-5h4c.552 0 1 .448 1 1s-.448 1-1 1h-4c-.552 0-1-.448-1-1s.448-1 1-1zm5.882 25.186-.11.221-4.579-5.234c-.769-.88-1.193-2.007-1.193-3.173 0-.338.047-.671.117-1h1.921l-.038 1.422zm.934-11.186c.112-.314.184-.648.184-1 0-.771-.301-1.468-.78-2 .48-.532.78-1.229.78-2s-.301-1.468-.78-2c.48-.532.78-1.229.78-2s-.301-1.468-.78-2c.479-.532.78-1.229.78-2 0-.352-.072-.686-.184-1h2.187c.074.02.254.201.321.427l3.991 13.573zm9.992 6.172-4.579 5.234-.11-.221 3.881-7.763v-1.236l-4.719-16.186h1.305c.304.298.632.561.977.795l4.252 14.882c.123.43.185.875.185 1.323 0 1.166-.424 2.293-1.192 3.172zm5.778-8.172-.535.535c-.731.731-1.659 1.195-2.661 1.373l-3.453-12.086c.503.113 1.02.178 1.548.178h2.515v-2h-2.515c-1.336 0-2.592-.521-3.536-1.465l-.535-.535h-7.414c-1.103 0-2-.897-2-2h14.515c1.336 0 2.592.521 3.536 1.465l.535.535h2.414v14zm12.414 2h-4v-2h-2v2h-2v-18h2v14h2v-14h4z"/></svg>